<?xml version="1.0" encoding="utf-8"?>
<!-- Generator: Adobe Illustrator 21.1.0, SVG Export Plug-In . SVG Version: 6.00 Build 0)  -->
<svg version="1.1" id="图层_1" xmlns="http://www.w3.org/2000/svg" xmlns:xlink="http://www.w3.org/1999/xlink" x="0px" y="0px"
	 viewBox="0 0 72 72" style="enable-background:new 0 0 72 72;" xml:space="preserve">
<style type="text/css">
	.st0{fill:none;stroke:#666666;stroke-width:4;stroke-linecap:round;stroke-miterlimit:10;}
</style>
<path class="st0" d="M43.1,26.5h-15c-1.7,0-3-1.3-3-3v-15c0-1.7,1.3-3,3-3h15c1.7,0,3,1.3,3,3v15C46.1,25.1,44.8,26.5,43.1,26.5z"/>
<path class="st0" d="M63,66.2H48c-1.7,0-3-1.3-3-3v-15c0-1.7,1.3-3,3-3h15c1.7,0,3,1.3,3,3v15C66,64.8,64.7,66.2,63,66.2z"/>
<path class="st0" d="M23.3,66.2h-15c-1.7,0-3-1.3-3-3v-15c0-1.7,1.3-3,3-3h15c1.7,0,3,1.3,3,3v15C26.3,64.8,25,66.2,23.3,66.2z"/>
<line class="st0" x1="15.8" y1="34.4" x2="15.8" y2="45.2"/>
<line class="st0" x1="55.5" y1="34.4" x2="55.5" y2="45.2"/>
<line class="st0" x1="15.8" y1="34.4" x2="55.5" y2="34.4"/>
<line class="st0" x1="35.6" y1="26.5" x2="35.6" y2="34.4"/>
</svg>
