<?xml version="1.0" encoding="utf-8"?>
<!-- Generator: Adobe Illustrator 21.1.0, SVG Export Plug-In . SVG Version: 6.00 Build 0)  -->
<svg version="1.1" id="图层_1" xmlns="http://www.w3.org/2000/svg" xmlns:xlink="http://www.w3.org/1999/xlink" x="0px" y="0px"
	 viewBox="0 0 20 20" style="enable-background:new 0 0 20 20;" xml:space="preserve">
<style type="text/css">
	.st0{fill:#AEB9C2;}
</style>
<g>
	<path class="st0" d="M8,2H3C2.4,2,2,2.4,2,3v5c0,0.6,0.4,1,1,1h5c0.6,0,1-0.4,1-1V3C9,2.4,8.6,2,8,2z"/>
	<path class="st0" d="M17,2h-5c-0.6,0-1,0.4-1,1v5c0,0.6,0.4,1,1,1h5c0.6,0,1-0.4,1-1V3C18,2.4,17.6,2,17,2z"/>
	<path class="st0" d="M8,11H3c-0.6,0-1,0.4-1,1v5c0,0.6,0.4,1,1,1h5c0.6,0,1-0.4,1-1v-5C9,11.4,8.6,11,8,11z"/>
	<path class="st0" d="M17,11h-5c-0.6,0-1,0.4-1,1v5c0,0.6,0.4,1,1,1h5c0.6,0,1-0.4,1-1v-5C18,11.4,17.6,11,17,11z"/>
</g>
</svg>
