<?xml version="1.0" encoding="utf-8"?>
<!-- Generator: Adobe Illustrator 21.1.0, SVG Export Plug-In . SVG Version: 6.00 Build 0)  -->
<svg version="1.1" id="图层_1" xmlns="http://www.w3.org/2000/svg" xmlns:xlink="http://www.w3.org/1999/xlink" x="0px" y="0px"
	 viewBox="0 0 20 20" style="enable-background:new 0 0 20 20;" xml:space="preserve">
<style type="text/css">
	.st0{fill:#27A9E3;}
</style>
<g>
	<path class="st0" d="M16,8h-1V7.5V7c0-2.8-2.2-5-5-5S5,4.2,5,7v1H4C3.4,8,3,8.4,3,9v8c0,0.6,0.4,1,1,1h12c0.6,0,1-0.4,1-1V9
		C17,8.4,16.6,8,16,8z M6,7c0-2.2,1.8-4,4-4c2.2,0,4,1.8,4,4v0.5V8H6V7z M16,16.5c0,0.3-0.2,0.5-0.5,0.5h-11C4.2,17,4,16.8,4,16.5
		v-7C4,9.2,4.2,9,4.5,9h11C15.8,9,16,9.2,16,9.5V16.5z"/>
	<path class="st0" d="M10,11c-0.6,0-1,0.4-1,1c0,0.4,0.2,0.7,0.5,0.8v1.7c0,0.3,0.2,0.5,0.5,0.5s0.5-0.2,0.5-0.5v-1.7
		c0.3-0.2,0.5-0.5,0.5-0.8C11,11.4,10.6,11,10,11z"/>
</g>
</svg>
