<?xml version="1.0" encoding="utf-8"?>
<!-- Generator: Adobe Illustrator 21.1.0, SVG Export Plug-In . SVG Version: 6.00 Build 0)  -->
<svg version="1.1" id="图层_1" xmlns="http://www.w3.org/2000/svg" xmlns:xlink="http://www.w3.org/1999/xlink" x="0px" y="0px"
	 viewBox="0 0 20 20" style="enable-background:new 0 0 20 20;" xml:space="preserve">
<style type="text/css">
	.st0{fill:#999999;}
</style>
<g>
	<path class="st0" d="M19,12V8l-2.5-0.5c0-0.1-0.1-0.2-0.1-0.4L17.8,5L15,2.2l-2.1,1.4c-0.1-0.1-0.2-0.1-0.4-0.1L12,1H8L7.5,3.5
		c-0.1,0-0.2,0.1-0.4,0.1l-2-1.4L2.2,5.1l1.4,2.1c0,0.1-0.1,0.2-0.1,0.3L1,8v4l2.5,0.5c0,0.1,0.1,0.2,0.1,0.4L2.2,15L5,17.8l2.1-1.4
		c0.1,0.1,0.2,0.1,0.4,0.1L8,19h4l0.5-2.5c0.1,0,0.2-0.1,0.4-0.1l2.1,1.4l2.8-2.8l-1.4-2.1c0.1-0.1,0.1-0.2,0.1-0.4L19,12z
		 M16.5,14.8l-1.7,1.7L13,15.2l-0.5,0.2c-0.1,0-0.2,0.1-0.3,0.1l-0.5,0.2L11.2,18H8.8l-0.4-2.2l-0.5-0.2c-0.1,0-0.2-0.1-0.3-0.1
		L7,15.2l-1.9,1.2l-1.7-1.7L4.8,13l-0.2-0.5c0-0.1-0.1-0.2-0.1-0.3l-0.2-0.5L2,11.2V8.8l2.2-0.4l0.2-0.5c0-0.1,0.1-0.2,0.1-0.3
		L4.8,7L3.5,5.2l1.7-1.7L7,4.8l0.5-0.2c0.1,0,0.2-0.1,0.3-0.1l0.5-0.2L8.8,2h2.4l0.4,2.2l0.5,0.2c0.1,0,0.2,0.1,0.3,0.1L13,4.8
		l1.9-1.2l1.7,1.7L15.2,7l0.2,0.5c0,0.1,0.1,0.2,0.1,0.3l0.2,0.5L18,8.8v2.4l-2.2,0.4l-0.2,0.5c0,0.1-0.1,0.2-0.1,0.3L15.2,13
		L16.5,14.8z"/>
	<path class="st0" d="M10,6c-2.2,0-4,1.8-4,4s1.8,4,4,4s4-1.8,4-4S12.2,6,10,6z M10,13c-1.7,0-3-1.3-3-3s1.3-3,3-3s3,1.3,3,3
		S11.7,13,10,13z"/>
</g>
</svg>
