<?xml version="1.0" encoding="utf-8"?>
<!-- Generator: Adobe Illustrator 21.1.0, SVG Export Plug-In . SVG Version: 6.00 Build 0)  -->
<svg version="1.1" id="图层_1" xmlns="http://www.w3.org/2000/svg" xmlns:xlink="http://www.w3.org/1999/xlink" x="0px" y="0px"
	 viewBox="0 0 20 20" style="enable-background:new 0 0 20 20;" xml:space="preserve">
<style type="text/css">
	.st0{fill:#999999;}
</style>
<path class="st0" d="M12.4,11.4C14,10.5,15,8.9,15,7c0-2.8-2.2-5-5-5S5,4.2,5,7c0,1.9,1,3.5,2.6,4.4c-3,0.9-5.2,3.5-5.6,6.6h1
	c0.5-3.4,3.4-6,7-6s6.5,2.6,7,6h1C17.6,14.9,15.4,12.3,12.4,11.4z M6,7c0-2.2,1.8-4,4-4s4,1.8,4,4s-1.8,4-4,4S6,9.2,6,7z"/>
</svg>
