<?xml version="1.0" encoding="utf-8"?>
<!-- Generator: Adobe Illustrator 21.1.0, SVG Export Plug-In . SVG Version: 6.00 Build 0)  -->
<svg version="1.1" id="图层_1" xmlns="http://www.w3.org/2000/svg" xmlns:xlink="http://www.w3.org/1999/xlink" x="0px" y="0px"
	 viewBox="0 0 20 20" style="enable-background:new 0 0 20 20;" xml:space="preserve">
<style type="text/css">
	.st0{fill:#999999;}
</style>
<g>
	<path class="st0" d="M7.5,12.8v1.7C7.5,14.8,7.7,15,8,15s0.5-0.2,0.5-0.5v-1.7C8.8,12.7,9,12.4,9,12c0-0.6-0.4-1-1-1s-1,0.4-1,1
		C7,12.4,7.2,12.7,7.5,12.8z"/>
	<path class="st0" d="M14,2c-2.8,0-5,2.2-5,5v1H2C1.4,8,1,8.4,1,9v8c0,0.6,0.4,1,1,1h12c0.6,0,1-0.4,1-1V9c0-0.6-0.4-1-1-1h-4V7
		c0-2.2,1.8-4,4-4c2.2,0,4,1.8,4,4v0.5C18,7.8,18.2,8,18.5,8S19,7.8,19,7.5V7C19,4.2,16.8,2,14,2z M13.5,9C13.8,9,14,9.2,14,9.5v7
		c0,0.3-0.2,0.5-0.5,0.5h-11C2.2,17,2,16.8,2,16.5v-7C2,9.2,2.2,9,2.5,9H13.5z"/>
</g>
</svg>
