<?xml version="1.0" encoding="utf-8"?>
<!-- Generator: Adobe Illustrator 21.1.0, SVG Export Plug-In . SVG Version: 6.00 Build 0)  -->
<svg version="1.1" id="图层_1" xmlns="http://www.w3.org/2000/svg" xmlns:xlink="http://www.w3.org/1999/xlink" x="0px" y="0px"
	 viewBox="0 0 20 20" style="enable-background:new 0 0 20 20;" xml:space="preserve">
<style type="text/css">
	.st0{fill:#27A9E3;}
</style>
<g>
	<path class="st0" d="M17,4h-3V2.5C14,2.2,13.8,2,13.5,2S13,2.2,13,2.5V4H7V2.5C7,2.2,6.8,2,6.5,2S6,2.2,6,2.5V4H3C2.4,4,2,4.4,2,5
		v12c0,0.6,0.4,1,1,1h14c0.6,0,1-0.4,1-1V5C18,4.4,17.6,4,17,4z M17,16.5c0,0.3-0.2,0.5-0.5,0.5h-13C3.2,17,3,16.8,3,16.5v-11
		C3,5.2,3.2,5,3.5,5H6v1.5C6,6.8,6.2,7,6.5,7S7,6.8,7,6.5V5h6v1.5C13,6.8,13.2,7,13.5,7S14,6.8,14,6.5V5h2.5C16.8,5,17,5.2,17,5.5
		V16.5z"/>
	<path class="st0" d="M5.5,9h9.1C14.8,9,15,8.8,15,8.5S14.8,8,14.5,8h-9C5.2,8,5,8.2,5,8.5S5.2,9,5.5,9z"/>
	<path class="st0" d="M14.5,11h-9C5.2,11,5,11.2,5,11.5S5.2,12,5.5,12h9.1c0.3,0,0.5-0.2,0.5-0.5v-0.1C15,11.2,14.8,11,14.5,11z"/>
	<path class="st0" d="M10.5,14h-5C5.2,14,5,14.2,5,14.5S5.2,15,5.5,15h5c0.3,0,0.5-0.2,0.5-0.5S10.8,14,10.5,14z"/>
</g>
</svg>
