<?xml version="1.0" encoding="utf-8"?>
<!-- Generator: Adobe Illustrator 21.1.0, SVG Export Plug-In . SVG Version: 6.00 Build 0)  -->
<svg version="1.1" id="图层_1" xmlns="http://www.w3.org/2000/svg" xmlns:xlink="http://www.w3.org/1999/xlink" x="0px" y="0px"
	 viewBox="0 0 20 20" style="enable-background:new 0 0 20 20;" xml:space="preserve">
<style type="text/css">
	.st0{fill:#999999;}
</style>
<g>
	<path class="st0" d="M8,2H3C2.4,2,2,2.4,2,3v5c0,0.6,0.4,1,1,1h5c0.6,0,1-0.4,1-1V3C9,2.4,8.6,2,8,2z M8,7.5C8,7.8,7.8,8,7.5,8h-4
		C3.2,8,3,7.8,3,7.5v-4C3,3.2,3.2,3,3.5,3h4C7.8,3,8,3.2,8,3.5V7.5z"/>
	<path class="st0" d="M10.5,4h7C17.8,4,18,3.8,18,3.5S17.8,3,17.5,3h-7C10.2,3,10,3.2,10,3.5S10.2,4,10.5,4z"/>
	<path class="st0" d="M17.5,5h-7C10.2,5,10,5.2,10,5.5S10.2,6,10.5,6h7C17.8,6,18,5.8,18,5.5S17.8,5,17.5,5z"/>
	<path class="st0" d="M17.5,7h-7C10.2,7,10,7.2,10,7.5S10.2,8,10.5,8h7C17.8,8,18,7.8,18,7.5S17.8,7,17.5,7z"/>
	<path class="st0" d="M17.5,12h-7c-0.3,0-0.5,0.2-0.5,0.5s0.2,0.5,0.5,0.5h7c0.3,0,0.5-0.2,0.5-0.5S17.8,12,17.5,12z"/>
	<path class="st0" d="M17.5,14h-7c-0.3,0-0.5,0.2-0.5,0.5s0.2,0.5,0.5,0.5h7c0.3,0,0.5-0.2,0.5-0.5S17.8,14,17.5,14z"/>
	<path class="st0" d="M17.5,16h-7c-0.3,0-0.5,0.2-0.5,0.5s0.2,0.5,0.5,0.5h7c0.3,0,0.5-0.2,0.5-0.5S17.8,16,17.5,16z"/>
	<path class="st0" d="M6.5,4.4L5.4,5.5L4.5,4.6C4.3,4.4,4,4.4,3.8,4.6c-0.2,0.2-0.2,0.5,0,0.7l1.3,1.3c0.2,0.2,0.5,0.2,0.7,0
		l1.4-1.4c0.2-0.2,0.2-0.5,0-0.7S6.7,4.2,6.5,4.4z"/>
	<path class="st0" d="M8,11H3c-0.6,0-1,0.4-1,1v5c0,0.6,0.4,1,1,1h5c0.6,0,1-0.4,1-1v-5C9,11.4,8.6,11,8,11z M8,16.5
		C8,16.8,7.8,17,7.5,17h-4C3.2,17,3,16.8,3,16.5v-4C3,12.2,3.2,12,3.5,12h4C7.8,12,8,12.2,8,12.5V16.5z"/>
	<path class="st0" d="M6.5,13.4l-1.1,1.1l-0.9-0.9c-0.2-0.2-0.5-0.2-0.7,0c-0.2,0.2-0.2,0.5,0,0.7l1.3,1.3c0.2,0.2,0.5,0.2,0.7,0
		l1.4-1.4c0.2-0.2,0.2-0.5,0-0.7S6.7,13.2,6.5,13.4z"/>
</g>
</svg>
