<?xml version="1.0" encoding="utf-8"?>
<!-- Generator: Adobe Illustrator 21.1.0, SVG Export Plug-In . SVG Version: 6.00 Build 0)  -->
<svg version="1.1" id="图层_1" xmlns="http://www.w3.org/2000/svg" xmlns:xlink="http://www.w3.org/1999/xlink" x="0px" y="0px"
	 viewBox="0 0 20 20" style="enable-background:new 0 0 20 20;" xml:space="preserve">
<style type="text/css">
	.st0{fill:#FFFFFF;}
</style>
<g>
	<path class="st0" d="M8,6h10c0.6,0,1-0.4,1-1s-0.4-1-1-1H8C7.4,4,7,4.4,7,5S7.4,6,8,6z"/>
	<path class="st0" d="M18,9H8c-0.6,0-1,0.4-1,1s0.4,1,1,1h10c0.6,0,1-0.4,1-1S18.6,9,18,9z"/>
	<path class="st0" d="M18,14H8c-0.6,0-1,0.4-1,1s0.4,1,1,1h10c0.6,0,1-0.4,1-1S18.6,14,18,14z"/>
	<path class="st0" d="M5,4H2C1.4,4,1,4.4,1,5s0.4,1,1,1h3c0.6,0,1-0.4,1-1S5.6,4,5,4z"/>
	<path class="st0" d="M5,9H2c-0.6,0-1,0.4-1,1s0.4,1,1,1h3c0.6,0,1-0.4,1-1S5.6,9,5,9z"/>
	<path class="st0" d="M5,14H2c-0.6,0-1,0.4-1,1s0.4,1,1,1h3c0.6,0,1-0.4,1-1S5.6,14,5,14z"/>
</g>
</svg>
