<?xml version="1.0" encoding="utf-8"?>
<!-- Generator: Adobe Illustrator 21.1.0, SVG Export Plug-In . SVG Version: 6.00 Build 0)  -->
<svg version="1.1" id="图层_1" xmlns="http://www.w3.org/2000/svg" xmlns:xlink="http://www.w3.org/1999/xlink" x="0px" y="0px"
	 viewBox="0 0 20 20" style="enable-background:new 0 0 20 20;" xml:space="preserve">
<style type="text/css">
	.st0{fill:#999999;}
</style>
<path class="st0" d="M17.9,17.1l-4.4-4.4c1-1.1,1.6-2.6,1.6-4.2C15,4.9,12.1,2,8.5,2S2,4.9,2,8.5S4.9,15,8.5,15
	c1.6,0,3.1-0.6,4.2-1.6l4.4,4.4c0.2,0.2,0.5,0.2,0.7,0C18,17.7,18,17.3,17.9,17.1z M12,12.7C11,13.5,9.8,14,8.5,14
	C5.5,14,3,11.5,3,8.5S5.5,3,8.5,3S14,5.5,14,8.5c0,1.3-0.5,2.6-1.3,3.5C12.5,12.3,12.3,12.5,12,12.7z"/>
</svg>
