<?xml version="1.0" encoding="utf-8"?>
<!-- Generator: Adobe Illustrator 21.1.0, SVG Export Plug-In . SVG Version: 6.00 Build 0)  -->
<svg version="1.1" id="图层_1" xmlns="http://www.w3.org/2000/svg" xmlns:xlink="http://www.w3.org/1999/xlink" x="0px" y="0px"
	 viewBox="0 0 20 20" style="enable-background:new 0 0 20 20;" xml:space="preserve">
<style type="text/css">
	.st0{fill:#27A9E3;}
</style>
<path class="st0" d="M8.5,3C8.8,3,9,3.2,9,3.5S8.8,4,8.5,4h-5C3.2,4,3,4.2,3,4.5v12C3,16.8,3.2,17,3.5,17h12c0.3,0,0.5-0.2,0.5-0.5
	v-6c0-0.3,0.2-0.5,0.5-0.5s0.5,0.2,0.5,0.5V17c0,0.6-0.4,1-1,1H3c-0.6,0-1-0.4-1-1V4c0-0.6,0.4-1,1-1H8.5z"/>
<path class="st0" d="M9.8,13 M7,10.2L7,13l2.8,0L18,4.8L15.2,2L7,10.2L7,10.2 M15.2,3.4l1.4,1.4l-0.7,0.7l-1.4-1.4L15.2,3.4z M8,12
	l0-1.4l5.8-5.8l1.4,1.4L9.4,12H8z"/>
</svg>
