<?xml version="1.0" encoding="utf-8"?>
<!-- Generator: Adobe Illustrator 21.1.0, SVG Export Plug-In . SVG Version: 6.00 Build 0)  -->
<svg version="1.1" id="图层_1" xmlns="http://www.w3.org/2000/svg" xmlns:xlink="http://www.w3.org/1999/xlink" x="0px" y="0px"
	 viewBox="0 0 20 20" style="enable-background:new 0 0 20 20;" xml:space="preserve">
<style type="text/css">
	.st0{fill:#999999;}
</style>
<path class="st0" d="M5.5,17C5.8,17,6,16.8,6,16.5S5.8,16,5.5,16h-2C3.2,16,3,15.8,3,15.5v-12C3,3.2,3.2,3,3.5,3h12
	C15.8,3,16,3.2,16,3.5v3C16,6.8,16.2,7,16.5,7S17,6.8,17,6.5V3c0-0.6-0.4-1-1-1H3C2.4,2,2,2.4,2,3v13c0,0.6,0.4,1,1,1H5.5z"/>
<path class="st0" d="M13.5,6h-8C5.2,6,5,5.8,5,5.5l0,0C5,5.2,5.2,5,5.5,5h8C13.8,5,14,5.2,14,5.5l0,0C14,5.8,13.8,6,13.5,6z"/>
<path class="st0" d="M10.5,9h-5C5.2,9,5,8.8,5,8.5l0,0C5,8.2,5.2,8,5.5,8h5C10.8,8,11,8.2,11,8.5l0,0C11,8.8,10.8,9,10.5,9z"/>
<path class="st0" d="M10.9,18 M8.1,15.2l0,2.8l2.8,0l7.1-7.1l-2.8-2.8L8.1,15.2L8.1,15.2 M15.2,9.5l1.4,1.4l-0.7,0.7l-1.4-1.4
	L15.2,9.5z M9.1,17l0-1.4l4.7-4.7l1.4,1.4L10.5,17H9.1z"/>
</svg>
