<?xml version="1.0" encoding="utf-8"?>
<!-- Generator: Adobe Illustrator 21.1.0, SVG Export Plug-In . SVG Version: 6.00 Build 0)  -->
<svg version="1.1" id="图层_1" xmlns="http://www.w3.org/2000/svg" xmlns:xlink="http://www.w3.org/1999/xlink" x="0px" y="0px"
	 viewBox="0 0 20 20" style="enable-background:new 0 0 20 20;" xml:space="preserve">
<style type="text/css">
	.st0{fill:#999999;}
</style>
<path class="st0" d="M10,1c-5,0-9,4-9,9s4,9,9,9s9-4,9-9S15,1,10,1z M10,18c-4.4,0-8-3.6-8-8s3.6-8,8-8s8,3.6,8,8S14.4,18,10,18z"/>
<g>
	<path class="st0" d="M10.3,13.9L10.3,13.9C10,14.1,9.7,14,9.6,13.7l-3.5-6C5.9,7.5,6,7.2,6.3,7.1l0,0C6.5,6.9,6.8,7,6.9,7.3l3.5,6
		C10.6,13.5,10.5,13.8,10.3,13.9z"/>
	<path class="st0" d="M9.7,13.9L9.7,13.9c-0.2-0.1-0.3-0.4-0.2-0.7l3.5-6c0.1-0.2,0.4-0.3,0.7-0.2l0,0c0.2,0.1,0.3,0.4,0.2,0.7
		l-3.5,6C10.3,14,10,14.1,9.7,13.9z"/>
</g>
</svg>
