<?xml version="1.0" encoding="utf-8"?>
<!-- Generator: Adobe Illustrator 21.1.0, SVG Export Plug-In . SVG Version: 6.00 Build 0)  -->
<svg version="1.1" id="图层_1" xmlns="http://www.w3.org/2000/svg" xmlns:xlink="http://www.w3.org/1999/xlink" x="0px" y="0px"
	 viewBox="0 0 20 20" style="enable-background:new 0 0 20 20;" xml:space="preserve">
<style type="text/css">
	.st0{fill:#27A9E3;}
</style>
<g>
	<path class="st0" d="M10,1c-5,0-9,4-9,9s4,9,9,9s9-4,9-9S15,1,10,1z M10,18c-4.4,0-8-3.6-8-8s3.6-8,8-8s8,3.6,8,8S14.4,18,10,18z"
		/>
	<path class="st0" d="M13.7,7.1c-0.2-0.1-0.5-0.1-0.7,0.2L10,12.5L6.9,7.3C6.8,7,6.5,6.9,6.3,7.1C6,7.2,5.9,7.5,6.1,7.8l3.5,6
		c0,0,0,0,0,0c0,0,0,0.1,0.1,0.1c0,0,0,0,0.1,0.1c0,0,0,0,0,0c0,0,0,0,0.1,0c0,0,0.1,0,0.1,0c0,0,0.1,0,0.1,0c0,0,0.1,0,0.1,0
		c0,0,0.1,0,0.1,0c0,0,0,0,0.1,0c0,0,0,0,0,0c0,0,0,0,0.1-0.1c0,0,0,0,0.1-0.1c0,0,0,0,0,0l3.5-6C14.1,7.5,14,7.2,13.7,7.1z"/>
</g>
</svg>
