<?xml version="1.0" encoding="utf-8"?>
<!-- Generator: Adobe Illustrator 21.1.0, SVG Export Plug-In . SVG Version: 6.00 Build 0)  -->
<svg version="1.1" id="图层_1" xmlns="http://www.w3.org/2000/svg" xmlns:xlink="http://www.w3.org/1999/xlink" x="0px" y="0px"
	 viewBox="0 0 20 20" style="enable-background:new 0 0 20 20;" xml:space="preserve">
<style type="text/css">
	.st0{fill:#27A9E3;}
</style>
<g>
	<path class="st0" d="M17,2H6C5.4,2,5,2.4,5,3v4H3C2.4,7,2,7.4,2,8v9c0,0.6,0.4,1,1,1h9c0.6,0,1-0.4,1-1v-2h4c0.6,0,1-0.4,1-1V3
		C18,2.4,17.6,2,17,2z M17,13.5c0,0.3-0.2,0.5-0.5,0.5h-6c-0.3,0-0.5,0.2-0.5,0.5s0.2,0.5,0.5,0.5H12v1.5c0,0.3-0.2,0.5-0.5,0.5h-8
		C3.2,17,3,16.8,3,16.5v-8C3,8.2,3.2,8,3.5,8H5v1.5C5,9.8,5.2,10,5.5,10C5.8,10,6,9.8,6,9.5v-6C6,3.2,6.2,3,6.5,3h10
		C16.8,3,17,3.2,17,3.5V13.5z"/>
	<path class="st0" d="M13.5,6h-3C10.2,6,10,6.2,10,6.5S10.2,7,10.5,7h1.8l-6.1,6.1c-0.2,0.2-0.2,0.5,0,0.7c0.2,0.2,0.5,0.2,0.7,0
		L13,7.7v1.8c0,0.3,0.2,0.5,0.5,0.5S14,9.8,14,9.5v-3C14,6.2,13.8,6,13.5,6z"/>
</g>
</svg>
