<?xml version="1.0" encoding="utf-8"?>
<!-- Generator: Adobe Illustrator 21.1.0, SVG Export Plug-In . SVG Version: 6.00 Build 0)  -->
<svg version="1.1" id="图层_1" xmlns="http://www.w3.org/2000/svg" xmlns:xlink="http://www.w3.org/1999/xlink" x="0px" y="0px"
	 viewBox="0 0 20 20" style="enable-background:new 0 0 20 20;" xml:space="preserve">
<style type="text/css">
	.st0{fill:#999999;}
</style>
<g>
	<path class="st0" d="M17,3h-2V2.5C15,2.2,14.8,2,14.5,2S14,2.2,14,2.5V3h-1V2.5C13,2.2,12.8,2,12.5,2S12,2.2,12,2.5V3H8V2.5
		C8,2.2,7.8,2,7.5,2S7,2.2,7,2.5V3H6V2.5C6,2.2,5.8,2,5.5,2S5,2.2,5,2.5V3H3C2.4,3,2,3.4,2,4v3v1v9c0,0.6,0.4,1,1,1h14
		c0.6,0,1-0.4,1-1V8V7V4C18,3.4,17.6,3,17,3z M17,16.5c0,0.3-0.2,0.5-0.5,0.5h-13C3.2,17,3,16.8,3,16.5V8h14V16.5z M3,7V4.5
		C3,4.2,3.2,4,3.5,4H5v1.5C5,5.8,5.2,6,5.5,6S6,5.8,6,5.5V4h1v1.5C7,5.8,7.2,6,7.5,6S8,5.8,8,5.5V4h4v1.5C12,5.8,12.2,6,12.5,6
		S13,5.8,13,5.5V4h1v1.5C14,5.8,14.2,6,14.5,6S15,5.8,15,5.5V4h1.5C16.8,4,17,4.2,17,4.5V7H3z"/>
	<path class="st0" d="M4.5,11h1C5.8,11,6,10.8,6,10.5S5.8,10,5.5,10h-1C4.2,10,4,10.2,4,10.5S4.2,11,4.5,11z"/>
	<path class="st0" d="M4.5,13h1C5.8,13,6,12.8,6,12.5S5.8,12,5.5,12h-1C4.2,12,4,12.2,4,12.5S4.2,13,4.5,13z"/>
	<path class="st0" d="M7.5,11h1C8.8,11,9,10.8,9,10.5S8.8,10,8.5,10h-1C7.2,10,7,10.2,7,10.5S7.2,11,7.5,11z"/>
	<path class="st0" d="M7.5,13h1C8.8,13,9,12.8,9,12.5S8.8,12,8.5,12h-1C7.2,12,7,12.2,7,12.5S7.2,13,7.5,13z"/>
	<path class="st0" d="M4.5,15h1C5.8,15,6,14.8,6,14.5S5.8,14,5.5,14h-1C4.2,14,4,14.2,4,14.5S4.2,15,4.5,15z"/>
	<path class="st0" d="M7.5,15h1C8.8,15,9,14.8,9,14.5S8.8,14,8.5,14h-1C7.2,14,7,14.2,7,14.5S7.2,15,7.5,15z"/>
	<path class="st0" d="M10.5,11h1c0.3,0,0.5-0.2,0.5-0.5S11.8,10,11.5,10h-1c-0.3,0-0.5,0.2-0.5,0.5S10.2,11,10.5,11z"/>
	<path class="st0" d="M10.5,13h1c0.3,0,0.5-0.2,0.5-0.5S11.8,12,11.5,12h-1c-0.3,0-0.5,0.2-0.5,0.5S10.2,13,10.5,13z"/>
	<path class="st0" d="M10.5,15h1c0.3,0,0.5-0.2,0.5-0.5S11.8,14,11.5,14h-1c-0.3,0-0.5,0.2-0.5,0.5S10.2,15,10.5,15z"/>
	<path class="st0" d="M13.5,11h2c0.3,0,0.5-0.2,0.5-0.5S15.8,10,15.5,10h-2c-0.3,0-0.5,0.2-0.5,0.5S13.2,11,13.5,11z"/>
	<path class="st0" d="M13.5,13h2c0.3,0,0.5-0.2,0.5-0.5S15.8,12,15.5,12h-2c-0.3,0-0.5,0.2-0.5,0.5S13.2,13,13.5,13z"/>
</g>
</svg>
