<?xml version="1.0" encoding="utf-8"?>
<!-- Generator: Adobe Illustrator 21.1.0, SVG Export Plug-In . SVG Version: 6.00 Build 0)  -->
<svg version="1.1" id="图层_1" xmlns="http://www.w3.org/2000/svg" xmlns:xlink="http://www.w3.org/1999/xlink" x="0px" y="0px"
	 viewBox="0 0 20 20" style="enable-background:new 0 0 20 20;" xml:space="preserve">
<style type="text/css">
	.st0{fill:#27A9E3;}
</style>
<g>
	<path class="st0" d="M17.5,4H15V2c0-0.6-0.4-1-1-1H6C5.4,1,5,1.4,5,2v2H2.5C2.2,4,2,4.2,2,4.5S2.2,5,2.5,5H6h8h3.5
		C17.8,5,18,4.8,18,4.5S17.8,4,17.5,4z M6.5,4C6.2,4,6,3.8,6,3.5v-1C6,2.2,6.2,2,6.5,2h7C13.8,2,14,2.2,14,2.5v1
		C14,3.8,13.8,4,13.5,4H6.5z"/>
	<path class="st0" d="M15.5,6C15.2,6,15,6.2,15,6.5V7v0.5v10c0,0.3-0.2,0.5-0.5,0.5h-9C5.2,18,5,17.8,5,17.5v-10V7V6.5
		C5,6.2,4.8,6,4.5,6S4,6.2,4,6.5V7v0.5V18c0,0.6,0.4,1,1,1h10c0.6,0,1-0.4,1-1V7.5V7V6.5C16,6.2,15.8,6,15.5,6z"/>
	<path class="st0" d="M9,15.5v-8C9,7.2,8.8,7,8.5,7S8,7.2,8,7.5v8C8,15.8,8.2,16,8.5,16S9,15.8,9,15.5z"/>
	<path class="st0" d="M12,15.5v-8C12,7.2,11.8,7,11.5,7S11,7.2,11,7.5v8c0,0.3,0.2,0.5,0.5,0.5S12,15.8,12,15.5z"/>
</g>
</svg>
