<?xml version="1.0" encoding="utf-8"?>
<!-- Generator: Adobe Illustrator 21.1.0, SVG Export Plug-In . SVG Version: 6.00 Build 0)  -->
<svg version="1.1" id="图层_1" xmlns="http://www.w3.org/2000/svg" xmlns:xlink="http://www.w3.org/1999/xlink" x="0px" y="0px"
	 viewBox="0 0 20 20" style="enable-background:new 0 0 20 20;" xml:space="preserve">
<style type="text/css">
	.st0{fill:#999999;}
</style>
<g>
	<path class="st0" d="M17.5,12H13V7.5C13,7.2,12.8,7,12.5,7S12,7.2,12,7.5V12H7.5C7.2,12,7,12.2,7,12.5S7.2,13,7.5,13H12v4.5
		c0,0.3,0.2,0.5,0.5,0.5s0.5-0.2,0.5-0.5V13h4.5c0.3,0,0.5-0.2,0.5-0.5S17.8,12,17.5,12z"/>
	<path class="st0" d="M5.5,16H5H3.5C3.2,16,3,15.8,3,15.5v-12C3,3.2,3.2,3,3.5,3h12C15.8,3,16,3.2,16,3.5V5v0.5
		C16,5.8,16.2,6,16.5,6S17,5.8,17,5.5V5V3.5V3c0-0.6-0.4-1-1-1H3C2.4,2,2,2.4,2,3v13c0,0.6,0.4,1,1,1h0.5H5h0.5
		C5.8,17,6,16.8,6,16.5S5.8,16,5.5,16z"/>
</g>
</svg>
