<?xml version="1.0" encoding="utf-8"?>
<!-- Generator: Adobe Illustrator 21.1.0, SVG Export Plug-In . SVG Version: 6.00 Build 0)  -->
<svg version="1.1" id="图层_1" xmlns="http://www.w3.org/2000/svg" xmlns:xlink="http://www.w3.org/1999/xlink" x="0px" y="0px"
	 viewBox="0 0 20 20" style="enable-background:new 0 0 20 20;" xml:space="preserve">
<style type="text/css">
	.st0{fill:#27A9E3;}
</style>
<path class="st0" d="M12,5H3.9l1.2-1.2l0,0c0.1-0.1,0.1-0.2,0.1-0.3C5.2,3.2,5,3,4.7,3C4.6,3,4.5,3.1,4.4,3.1l0,0L2,5.5l0,0l0,0
	l2.4,2.4l0,0C4.5,8,4.6,8,4.7,8C5,8,5.2,7.8,5.2,7.5c0-0.1,0-0.2-0.1-0.3l0,0l0,0c0,0,0,0,0,0L3.9,6h4.8H12c2.8,0,5,2.2,5,5
	s-2.2,5-5,5H8.7H3.5C3.2,16,3,16.2,3,16.5S3.2,17,3.5,17H12c3.3,0,6-2.7,6-6S15.3,5,12,5z"/>
</svg>
