<?xml version="1.0" encoding="utf-8"?>
<!-- Generator: Adobe Illustrator 21.1.0, SVG Export Plug-In . SVG Version: 6.00 Build 0)  -->
<svg version="1.1" id="图层_1" xmlns="http://www.w3.org/2000/svg" xmlns:xlink="http://www.w3.org/1999/xlink" x="0px" y="0px"
	 viewBox="0 0 20 20" style="enable-background:new 0 0 20 20;" xml:space="preserve">
<style type="text/css">
	.st0{fill:none;stroke:#999999;stroke-miterlimit:10;}
	.st1{fill:#999999;}
</style>
<circle class="st0" cx="2.5" cy="-57.5" r="12"/>
<circle class="st0" cx="18.5" cy="-57.5" r="12"/>
<circle class="st0" cx="-1" cy="-42" r="19.5"/>
<circle class="st0" cx="22" cy="-42" r="19.5"/>
<circle class="st0" cx="5" cy="-45" r="15.5"/>
<circle class="st0" cx="16" cy="-45" r="15.5"/>
<g>
	<path class="st1" d="M17.7,4C14.7,3.9,12,2.8,10,1C8,2.8,5.3,3.9,2.3,4C2.1,5.1,2,6.3,2,7.5c0,2.1,0,4.2,1,6.1c1,2.4,4.2,4.3,7,5.3
		c2.8-1.1,6-3,7-5.3c1-2,1-4,1-6.1C18,6.3,17.9,5.1,17.7,4z M16.1,13.2c-0.9,2-3.7,3.7-6.1,4.7c-2.5-1-5.2-2.7-6.1-4.7
		C3,11.5,3,9.6,3,7.5C3,6.7,3.1,5.8,3.2,5C5.7,4.7,8.1,3.8,10,2.3c1.9,1.5,4.3,2.4,6.8,2.7C16.9,5.8,17,6.7,17,7.5
		C17,9.6,17,11.5,16.1,13.2z"/>
	<path class="st1" d="M14.5,6H11c0-0.6-0.4-1-1-1S9,5.4,9,6H5.5C5.2,6,5,6.2,5,6.5v1C5,7.8,5.2,8,5.5,8S6,7.8,6,7.5V7h3v1H6.5
		C6.2,8,6,8.2,6,8.5V10v1v1.5C6,12.8,6.2,13,6.5,13H9v2c0,0.6,0.4,1,1,1s1-0.4,1-1v-2h2.5c0.3,0,0.5-0.2,0.5-0.5V11v-1V8.5
		C14,8.2,13.8,8,13.5,8H11V7h3v0.5C14,7.8,14.2,8,14.5,8S15,7.8,15,7.5v-1C15,6.2,14.8,6,14.5,6z M7,9h2v1H7V9z M7,12v-1h2v1H7z
		 M13,12h-2v-1h2V12z M13,9v1h-2V9H13z"/>
</g>
</svg>
