<?xml version="1.0" encoding="utf-8"?>
<!-- Generator: Adobe Illustrator 21.1.0, SVG Export Plug-In . SVG Version: 6.00 Build 0)  -->
<svg version="1.1" id="图层_1" xmlns="http://www.w3.org/2000/svg" xmlns:xlink="http://www.w3.org/1999/xlink" x="0px" y="0px"
	 viewBox="0 0 20 20" style="enable-background:new 0 0 20 20;" xml:space="preserve">
<style type="text/css">
	.st0{fill:#27A9E3;}
</style>
<path class="st0" d="M17,2H3C2.4,2,2,2.4,2,3v14c0,0.6,0.4,1,1,1h14c0.6,0,1-0.4,1-1V3C18,2.4,17.6,2,17,2z M17,16.5
	c0,0.3-0.2,0.5-0.5,0.5h-13C3.2,17,3,16.8,3,16.5v-13C3,3.2,3.2,3,3.5,3h13C16.8,3,17,3.2,17,3.5V16.5z"/>
<path class="st0" d="M14.5,6h-6C8.2,6,8,5.8,8,5.5v0C8,5.2,8.2,5,8.5,5h6C14.8,5,15,5.2,15,5.5v0C15,5.8,14.8,6,14.5,6z"/>
<path class="st0" d="M14.5,9h-6C8.2,9,8,8.8,8,8.5v0C8,8.2,8.2,8,8.5,8h6C14.8,8,15,8.2,15,8.5v0C15,8.8,14.8,9,14.5,9z"/>
<path class="st0" d="M14.5,12h-6C8.2,12,8,11.8,8,11.5v0C8,11.2,8.2,11,8.5,11h6c0.3,0,0.5,0.2,0.5,0.5v0C15,11.8,14.8,12,14.5,12z"
	/>
<path class="st0" d="M14.5,15h-6C8.2,15,8,14.8,8,14.5v0C8,14.2,8.2,14,8.5,14h6c0.3,0,0.5,0.2,0.5,0.5v0C15,14.8,14.8,15,14.5,15z"
	/>
<path class="st0" d="M6.5,6h-1C5.2,6,5,5.8,5,5.5v0C5,5.2,5.2,5,5.5,5h1C6.8,5,7,5.2,7,5.5v0C7,5.8,6.8,6,6.5,6z"/>
<path class="st0" d="M6.5,9h-1C5.2,9,5,8.8,5,8.5v0C5,8.2,5.2,8,5.5,8h1C6.8,8,7,8.2,7,8.5v0C7,8.8,6.8,9,6.5,9z"/>
<path class="st0" d="M6.5,12h-1C5.2,12,5,11.8,5,11.5v0C5,11.2,5.2,11,5.5,11h1C6.8,11,7,11.2,7,11.5v0C7,11.8,6.8,12,6.5,12z"/>
<path class="st0" d="M6.5,15h-1C5.2,15,5,14.8,5,14.5v0C5,14.2,5.2,14,5.5,14h1C6.8,14,7,14.2,7,14.5v0C7,14.8,6.8,15,6.5,15z"/>
</svg>
