<?xml version="1.0" encoding="utf-8"?>
<!-- Generator: Adobe Illustrator 21.1.0, SVG Export Plug-In . SVG Version: 6.00 Build 0)  -->
<svg version="1.1" id="图层_1" xmlns="http://www.w3.org/2000/svg" xmlns:xlink="http://www.w3.org/1999/xlink" x="0px" y="0px"
	 viewBox="0 0 20 20" style="enable-background:new 0 0 20 20;" xml:space="preserve">
<style type="text/css">
	.st0{fill:#27A9E3;}
</style>
<g>
	<path class="st0" d="M17.6,14H15v-2.6c0-0.2-0.2-0.4-0.4-0.4h-0.2c-0.2,0-0.4,0.2-0.4,0.4V14h-2.6c-0.2,0-0.4,0.2-0.4,0.4v0.2
		c0,0.2,0.2,0.4,0.4,0.4H14v2.6c0,0.2,0.2,0.4,0.4,0.4h0.2c0.2,0,0.4-0.2,0.4-0.4V15h2.6c0.2,0,0.4-0.2,0.4-0.4v-0.2
		C18,14.2,17.8,14,17.6,14z"/>
	<path class="st0" d="M9.5,16H8H7.5h-1C6.2,16,6,15.8,6,15.5v-9C6,6.2,6.2,6,6.5,6h9C15.8,6,16,6.2,16,6.5v1V8v1.5
		c0,0.3,0.2,0.5,0.5,0.5S17,9.8,17,9.5V8V7.5V6c0-0.6-0.4-1-1-1h-2V3c0-0.6-0.4-1-1-1H3C2.4,2,2,2.4,2,3v10c0,0.6,0.4,1,1,1h2v2
		c0,0.6,0.4,1,1,1h1.5H8h1.5c0.3,0,0.5-0.2,0.5-0.5S9.8,16,9.5,16z M5,6v7H3.5C3.2,13,3,12.8,3,12.5v-9C3,3.2,3.2,3,3.5,3h9
		C12.8,3,13,3.2,13,3.5V5H6C5.4,5,5,5.4,5,6z"/>
</g>
</svg>
