<?xml version="1.0" encoding="utf-8"?>
<!-- Generator: Adobe Illustrator 21.1.0, SVG Export Plug-In . SVG Version: 6.00 Build 0)  -->
<svg version="1.1" id="图层_1" xmlns="http://www.w3.org/2000/svg" xmlns:xlink="http://www.w3.org/1999/xlink" x="0px" y="0px"
	 viewBox="0 0 20 20" style="enable-background:new 0 0 20 20;" xml:space="preserve">
<style type="text/css">
	.st0{fill:#999999;}
</style>
<path class="st0" d="M13,14.5c0-0.3-0.2-0.5-0.5-0.5h0c-0.3,0-0.5,0.2-0.5,0.5v2c0,0.3-0.2,0.5-0.5,0.5h-8C3.2,17,3,16.8,3,16.5v-13
	C3,3.2,3.2,3,3.5,3h8C11.8,3,12,3.2,12,3.5v1C12,4.8,12.2,5,12.5,5h0C12.8,5,13,4.8,13,4.5V3c0-0.6-0.4-1-1-1H3C2.4,2,2,2.4,2,3v14
	c0,0.6,0.4,1,1,1h9c0.6,0,1-0.4,1-1V14.5z"/>
<path class="st0" d="M17.8,9.1l-3-3c-0.2-0.2-0.5-0.2-0.7,0c-0.2,0.2-0.2,0.5,0,0.7L16.3,9H9.5C9.2,9,9,9.2,9,9.5S9.2,10,9.5,10h6.7
	l-2.1,2.1c-0.2,0.2-0.2,0.5,0,0.7c0.2,0.2,0.5,0.2,0.7,0l2.9-2.9C17.9,9.8,18,9.7,18,9.5c0,0,0,0,0,0C18,9.4,18,9.2,17.8,9.1z"/>
</svg>
