<?xml version="1.0" encoding="utf-8"?>
<!-- Generator: Adobe Illustrator 21.1.0, SVG Export Plug-In . SVG Version: 6.00 Build 0)  -->
<svg version="1.1" id="图层_1" xmlns="http://www.w3.org/2000/svg" xmlns:xlink="http://www.w3.org/1999/xlink" x="0px" y="0px"
	 viewBox="0 0 20 20" style="enable-background:new 0 0 20 20;" xml:space="preserve">
<style type="text/css">
	.st0{fill:#27A9E3;}
</style>
<g>
	<path class="st0" d="M8.5,16h-3h-2C3.2,16,3,15.8,3,15.5v-12C3,3.2,3.2,3,3.5,3h12C15.8,3,16,3.2,16,3.5v2V6v1.5
		C16,7.8,16.2,8,16.5,8S17,7.8,17,7.5V6V5.5V3c0-0.6-0.4-1-1-1H3C2.4,2,2,2.4,2,3v13c0,0.6,0.4,1,1,1h2.5h3C8.8,17,9,16.8,9,16.5
		C9,16.2,8.8,16,8.5,16z"/>
	<path class="st0" d="M17.9,17.1L10.7,10h1.8c0.3,0,0.5-0.2,0.5-0.5S12.8,9,12.5,9h-3C9.2,9,9,9.2,9,9.5v3C9,12.8,9.2,13,9.5,13
		s0.5-0.2,0.5-0.5v-1.8l7.1,7.1c0.2,0.2,0.5,0.2,0.7,0C18,17.7,18,17.3,17.9,17.1z"/>
</g>
</svg>
