<?xml version="1.0" encoding="utf-8"?>
<!-- Generator: Adobe Illustrator 21.1.0, SVG Export Plug-In . SVG Version: 6.00 Build 0)  -->
<svg version="1.1" id="图层_1" xmlns="http://www.w3.org/2000/svg" xmlns:xlink="http://www.w3.org/1999/xlink" x="0px" y="0px"
	 viewBox="0 0 20 20" style="enable-background:new 0 0 20 20;" xml:space="preserve">
<style type="text/css">
	.st0{fill:#999999;}
</style>
<g>
	<path class="st0" d="M17.5,14H15v-2.5c0-0.3-0.2-0.5-0.5-0.5S14,11.2,14,11.5V14h-2.5c-0.3,0-0.5,0.2-0.5,0.5s0.2,0.5,0.5,0.5H14
		v2.5c0,0.3,0.2,0.5,0.5,0.5s0.5-0.2,0.5-0.5V15h2.5c0.3,0,0.5-0.2,0.5-0.5S17.8,14,17.5,14z"/>
	<path class="st0" d="M9.5,17c0.3,0,0.5-0.2,0.5-0.5S9.8,16,9.5,16h-6C3.2,16,3,15.8,3,15.5v-12C3,3.2,3.2,3,3.5,3h12
		C15.8,3,16,3.2,16,3.5v6c0,0.3,0.2,0.5,0.5,0.5S17,9.8,17,9.5V3c0-0.6-0.4-1-1-1H3C2.4,2,2,2.4,2,3v13c0,0.6,0.4,1,1,1H9.5z"/>
	<path class="st0" d="M13.5,5h-8C5.2,5,5,5.2,5,5.5S5.2,6,5.5,6h8C13.8,6,14,5.8,14,5.5S13.8,5,13.5,5z"/>
	<path class="st0" d="M13.5,8h-8C5.2,8,5,8.2,5,8.5S5.2,9,5.5,9h8C13.8,9,14,8.8,14,8.5S13.8,8,13.5,8z"/>
</g>
</svg>
