<?xml version="1.0" encoding="utf-8"?>
<!-- Generator: Adobe Illustrator 21.1.0, SVG Export Plug-In . SVG Version: 6.00 Build 0)  -->
<svg version="1.1" id="图层_1" xmlns="http://www.w3.org/2000/svg" xmlns:xlink="http://www.w3.org/1999/xlink" x="0px" y="0px"
	 viewBox="0 0 72 72" style="enable-background:new 0 0 72 72;" xml:space="preserve">
<style type="text/css">
	.st0{fill:none;stroke:#00A0F0;stroke-width:4;stroke-linecap:round;stroke-miterlimit:10;}
</style>
<path class="st0" d="M66.5,31v30.5c0,2.2-1.8,4-4,4H9.8c-2.2,0-4-1.8-4-4V10c0-2.2,1.8-4,4-4h33"/>
<line class="st0" x1="25.4" y1="39.6" x2="52.5" y2="13.5"/>
<line class="st0" x1="61.5" y1="21.8" x2="52.5" y2="13.5"/>
<line class="st0" x1="34.5" y1="48.3" x2="61.5" y2="21.8"/>
<line class="st0" x1="25.4" y1="39.6" x2="34.5" y2="48.3"/>
<line class="st0" x1="21.3" y1="52.9" x2="25.4" y2="39.6"/>
<line class="st0" x1="34.5" y1="48.3" x2="21.3" y2="52.9"/>
<path class="st0" d="M52.4,13.4l4.1-4.1c1.6-1.6,4.1-1.6,5.7,0l2.9,2.9c1.6,1.6,1.6,4.1,0,5.7l-3.8,3.8"/>
</svg>
